<?xml version="1.0" standalone="no"?>
<!DOCTYPE svg PUBLIC "-//W3C//DTD SVG 20010904//EN"
 "http://www.w3.org/TR/2001/REC-SVG-20010904/DTD/svg10.dtd">
<svg version="1.0" xmlns="http://www.w3.org/2000/svg"
 width="106.000000pt" height="106.000000pt" viewBox="0 0 106.000000 106.000000"
 preserveAspectRatio="xMidYMid meet">
<metadata>
Created by potrace 1.11, written by Peter Selinger 2001-2013
</metadata>
<g transform="translate(0.000000,106.000000) scale(0.100000,-0.100000)"
fill="#000000" stroke="none">
<path d="M0 530 l0 -530 530 0 530 0 0 530 0 530 -530 0 -530 0 0 -530z m860
275 l0 -65 -270 0 -271 0 3 -67 3 -68 267 -3 268 -2 0 -201 0 -200 -67 3 -68
3 -2 130 -1 130 -266 3 -266 2 0 200 0 200 335 0 335 0 0 -65z m-532 -540 l-2
-65 -68 0 -68 0 0 65 0 65 70 0 70 0 -2 -65z m262 0 l0 -65 -65 0 -65 0 0 65
0 65 65 0 65 0 0 -65z"/>
</g>
</svg>
