<?xml version="1.0" standalone="no"?>
<!DOCTYPE svg PUBLIC "-//W3C//DTD SVG 20010904//EN"
 "http://www.w3.org/TR/2001/REC-SVG-20010904/DTD/svg10.dtd">
<svg version="1.0" xmlns="http://www.w3.org/2000/svg"
 width="106.000000pt" height="106.000000pt" viewBox="0 0 106.000000 106.000000"
 preserveAspectRatio="xMidYMid meet">
<metadata>
Created by potrace 1.11, written by Peter Selinger 2001-2013
</metadata>
<g transform="translate(0.000000,106.000000) scale(0.100000,-0.100000)"
fill="#000000" stroke="none">
<path d="M0 530 l0 -530 530 0 530 0 0 530 0 530 -530 0 -530 0 0 -530z m860
275 l0 -75 -265 0 -265 0 0 -60 0 -60 265 0 265 0 0 -205 0 -205 -70 0 -69 0
-3 133 -3 132 -267 3 -268 2 0 198 c0 109 3 202 7 205 3 4 156 7 340 7 l333 0
0 -75z m-532 -537 l-3 -73 -67 -3 -68 -3 0 76 0 75 70 0 71 0 -3 -72z m264 60
c2 -7 4 -40 3 -73 l-1 -60 -69 0 -70 0 -3 59 c-2 32 -1 65 2 72 7 19 132 20
138 2z"/>
</g>
</svg>
